<svg xmlns="http://www.w3.org/2000/svg" width="32" height="32" viewBox="0 0 32 32">
  <path fill="#353F52" fill-rule="evenodd" d="M16.0000004,14.5857896 L25.2929,5.29289 C25.6834,4.90237 26.3166,4.90237 26.7071,5.29289 C27.0976,5.68342 27.0976,6.31658 26.7071,6.70711 L17.4142096,16.0000004 L26.7071,25.2929 C27.0976,25.6834 27.0976,26.3166 26.7071,26.7071 C26.3166,27.0976 25.6834,27.0976 25.2929,26.7071 L16.0000004,17.4142096 L6.70711,26.7071 C6.31658,27.0976 5.68342,27.0976 5.29289,26.7071 C4.90237,26.3166 4.90237,25.6834 5.29289,25.2929 L14.5857896,16.0000004 L5.29289,6.70711 C4.90237,6.31658 4.90237,5.68342 5.29289,5.29289 C5.68342,4.90237 6.31658,4.90237 6.70711,5.29289 L16.0000004,14.5857896 Z"/>
</svg>
