<svg xmlns="http://www.w3.org/2000/svg" width="100" height="27" viewBox="0 0 100 27">
  <path fill="#353F52" fill-rule="evenodd" d="M216.118339,65.2674506 C219.270703,65.2674506 221.797598,62.6154616 221.797598,59.3129847 C221.797598,56.0105079 219.245684,53.3585189 216.118339,53.3585189 C212.990993,53.3585189 210.439079,56.0105079 210.439079,59.3129847 C210.439079,62.6154616 212.965974,65.2674506 216.118339,65.2674506 Z M221.172129,42.0250188 L221.172129,42 L225,42 L225,68.2697023 L221.172129,68.2697023 L221.172129,66.8936703 C219.645984,67.8944208 218.169877,68.5198899 216.168376,68.5198899 C210.939455,68.5198899 206.661246,64.4168126 206.661246,59.3380035 C206.661246,54.2842132 210.939455,50.1561171 216.168376,50.1561171 C218.019765,50.1561171 219.74606,50.6815111 221.172129,51.5821866 L221.172129,42.0250188 Z M191.224669,57.5116337 L201.082062,57.5116337 C200.656743,54.9597198 198.605204,53.1833875 196.328496,53.1833875 C194.02677,53.1833875 191.725044,54.8846635 191.224669,57.5116337 Z M196.428571,50.1310983 C201.082062,50.1310983 204.984989,53.2084063 204.984989,58.9126845 C204.984989,59.287966 204.984989,59.6132099 204.95997,60.1886415 L191.049537,60.1886415 C191.249687,63.0657993 193.551414,65.2424318 196.503628,65.2424318 C198.980485,65.2424318 200.631724,64.1165874 201.557418,62.5404053 L204.534651,64.4418314 C203.108581,66.6685014 200.781836,68.1696272 197.654491,68.4948712 C192.250438,69.0202652 187.34676,65.0422817 187.221666,59.6132099 C187.096572,54.3092319 190.9995,50.1310983 196.428571,50.1310983 Z M169.083062,68.4448336 C166.155867,68.4448336 163.45384,67.2689517 162.202902,64.8171128 L165.005004,62.8156117 C165.705529,64.2667 167.406805,65.1423568 169.258194,65.1423568 C170.709282,65.1423568 171.885164,64.5168877 171.885164,63.2909682 C171.885164,62.2401801 171.134601,61.6397298 169.058044,61.0142607 L167.556918,60.5639229 C164.579685,59.6882662 163.028521,57.8118589 163.05354,55.2099074 C163.078559,52.182637 165.655492,50.2061546 169.183137,50.2061546 C171.509882,50.2061546 173.561421,51.0067551 174.962472,52.6830123 L172.685764,55.0597948 C171.710033,54.0090068 170.509132,53.4085564 169.058044,53.4085564 C167.682012,53.4085564 166.656242,53.983988 166.656242,54.9597198 C166.656242,55.8854141 167.206655,56.4108081 169.058044,56.9612209 L170.809357,57.5366525 C173.861646,58.4623468 175.537903,60.238679 175.537903,62.9907431 C175.487866,66.49337 172.785839,68.4448336 169.083062,68.4448336 Z M147.041531,57.5116337 L156.898924,57.5116337 C156.473605,54.9597198 154.422067,53.1833875 152.145359,53.1833875 C149.868651,53.1833875 147.516888,54.8846635 147.041531,57.5116337 Z M152.245434,50.1310983 C156.898924,50.1310983 160.801851,53.2084063 160.801851,58.9126845 C160.801851,59.287966 160.801851,59.6132099 160.776833,60.1886415 L146.841381,60.1886415 C147.041531,63.0657993 149.343257,65.2424318 152.295472,65.2424318 C154.772329,65.2424318 156.423568,64.1165874 157.349262,62.5404053 L160.326495,64.4418314 C158.900425,66.6685014 156.57368,68.1696272 153.446335,68.4948712 C148.042282,69.0202652 143.138604,65.0422817 143.01351,59.6132099 C142.913435,54.3092319 146.791344,50.1310983 152.245434,50.1310983 Z M128.902927,50.7565674 L128.902927,53.13335 C129.953715,51.3820365 131.955216,50.4313235 134.206905,50.4313235 C138.259945,50.4313235 140.886915,53.2834626 140.886915,57.7368026 L140.886915,68.294721 L137.009007,68.294721 L137.009007,58.3872905 C137.009007,55.6352264 135.207656,53.9339505 133.006005,53.9339505 C130.779335,53.9339505 128.877908,55.6102077 128.877908,58.3872905 L128.877908,68.294721 L125,68.294721 L125,50.7565674 L128.902927,50.7565674 Z M185.495372,64.2917188 C186.045784,65.4676007 186.771328,66.5434076 187.672004,67.4941206 C186.671253,68.1195897 185.395296,68.4698524 183.919189,68.4698524 C179.640981,68.4698524 177.289217,65.7177883 177.364273,61.1143358 L177.364273,45.4525894 L181.192144,45.4525894 L181.192144,50.5564173 L186.295972,50.5564173 L186.295972,53.9589692 L181.242182,53.9589692 L181.242182,54.4343257 L181.242182,61.1393545 C181.217163,63.7663247 181.967726,64.6419815 183.944208,64.6419815 C184.569677,64.591944 185.095071,64.5168877 185.495372,64.2917188 Z" transform="translate(-125 -42)"/>
</svg>
