<svg xmlns="http://www.w3.org/2000/svg" width="32" height="32" viewBox="0 0 32 32">
  <path fill="#353F52" fill-rule="evenodd" d="M4 16C4 15.4477 4.44772 15 5 15L27 15C27.5523 15 28 15.4477 28 16 28 16.5523 27.5523 17 27 17L5 17C4.44772 17 4 16.5523 4 16zM4 8C4 7.4477 4.44772 7 5 7L27 7C27.5523 7 28 7.4477 28 8 28 8.5523 27.5523 9 27 9L5 9C4.44772 9 4 8.5523 4 8zM4 24C4 23.4477 4.44772 23 5 23L27 23C27.5523 23 28 23.4477 28 24 28 24.5523 27.5523 25 27 25L5 25C4.44772 25 4 24.5523 4 24z"/>
</svg>
