<svg xmlns="http://www.w3.org/2000/svg" width="32" height="32" viewBox="0 0 32 32">
  <path fill="#353F52" fill-rule="evenodd" d="M8.70704,4.12132 C8.31652,3.7308 7.68335,3.7308 7.29283,4.12132 L5.05019,6.36396 C3.71731,7.69683 2.97768,9.44899 3.19434,11.1834 C4.40242,20.8539 11.146,27.5975 20.8166,28.8056 C22.5509,29.0223 24.3031,28.2826 25.636,26.9497 L27.8786,24.7071 C28.2691,24.3166 28.2691,23.6834 27.8786,23.2929 L23.707,19.1213 C23.3165,18.7308 22.6833,18.7308 22.2928,19.1213 L20.707,20.7071 C19.4327,21.9814 17.8254,22.2849 16.3038,21.9806 C14.8171,21.6832 13.3977,20.812 12.2928,19.7071 C11.1879,18.6022 10.3167,17.1828 10.0194,15.6961 C9.71503,14.1745 10.0185,12.5672 11.2928,11.2929 L12.8786,9.70711 C13.2691,9.31658 13.2691,8.68342 12.8786,8.2929 L8.70704,4.12132 Z M5.87861,2.70711 C7.05018,1.53554 8.94968,1.53553 10.1213,2.70711 L14.2928,6.87868 C15.4644,8.05026 15.4644,9.94975 14.2928,11.1213 L12.707,12.7071 C11.9813,13.4328 11.7848,14.3255 11.9805,15.3039 C12.1832,16.3172 12.8119,17.3978 13.707,18.2929 C14.6021,19.188 15.6827,19.8168 16.696,20.0194 C17.6744,20.2151 18.5671,20.0186 19.2928,19.2929 L20.8786,17.7071 C22.0502,16.5355 23.9497,16.5355 25.1213,17.7071 L29.2928,21.8787 C30.4644,23.0503 30.4644,24.9497 29.2928,26.1213 L27.0502,28.364 C25.3825,30.0317 23.045,31.0995 20.5687,30.7902 C9.99011,29.4686 2.53128,22.0098 1.20977,11.4313 C0.900412,8.95491 1.96826,6.61746 3.63597,4.94975 L5.87861,2.70711 Z M16,7 C16,6.44772 16.4477,6 17,6 C21.9706,6 26,10.0294 26,15 C26,15.5523 25.5523,16 25,16 C24.4477,16 24,15.5523 24,15 C24,11.134 20.866,8 17,8 C16.4477,8 16,7.55228 16,7 Z M16,3 C16,2.44772 16.4477,2 17,2 C24.1797,2 30,7.8203 30,15 C30,15.5523 29.5523,16 29,16 C28.4477,16 28,15.5523 28,15 C28,8.92487 23.0751,4 17,4 C16.4477,4 16,3.55228 16,3 Z"/>
</svg>
